<?xml version="1.0" encoding="UTF-8" standalone="no"?>
<!-- Created with Inkscape (http://www.inkscape.org/) -->

<svg
   version="1.1"
   id="svg737"
   width="205.82654"
   height="46.147736"
   viewBox="0 0 205.82654 46.147736"
   xmlns="http://www.w3.org/2000/svg"
   xmlns:svg="http://www.w3.org/2000/svg">
  <defs
     id="defs741" />
  <g
     id="g745"
     transform="matrix(1.3333333,0,0,1.3333333,0,1.4870267e-6)">
    <g
       id="g747">
      <path
         d="m 9.57,8.52 c -0.336,6.718 -3.136,14.863 -4.957,19.679 -0.168,0.363 -0.168,0.418 -0.168,0.477 0,0.195 0.254,0.195 0.309,0.195 0.558,0 1.68,-0.59 2.156,-1.176 0.168,-0.195 4.172,-10.3 5.094,-18.14 0.168,-1.231 0.223,-2.489 0.223,-2.602 0,-0.391 0,-0.504 -0.336,-0.504 -0.336,0 -1.286,0.477 -1.903,0.785 -1.398,0.7 -2.574,1.286 -2.574,1.848 0,0.168 0.223,0.168 0.336,0.168 0.277,0 0.336,0 1.82,-0.73 z m 16.375,15.761 c 0,-0.031 0,-0.281 -0.367,-0.281 -0.168,0 -0.504,0.027 -0.922,0.363 -0.363,0.254 -0.449,0.336 -0.586,0.84 -0.84,2.352 -3.863,2.352 -3.922,2.352 -2.992,0 -7.332,-9.684 -7.332,-12.457 0,-0.504 0.082,-0.813 1.176,-1.93 2.266,-2.238 7.727,-5.402 9.18,-5.402 0.644,0 1.121,0.504 1.121,1.316 0,0.195 -0.086,0.363 -0.086,0.473 0,0.199 0.113,0.367 0.395,0.367 0.054,0 1.539,-0.113 1.539,-1.625 0,-1.035 -0.645,-1.848 -1.793,-1.848 -2.098,0 -6.352,2.465 -8.789,4.199 -1.317,0.954 -4.59,3.301 -4.59,5.207 0,2.657 3.105,9.321 5.316,11.559 1.094,1.066 1.738,1.457 2.66,1.457 2.407,0 4.899,-1.262 6.075,-2.742 0.812,-0.981 0.925,-1.766 0.925,-1.848 z"
         style="fill:#000000;fill-opacity:1;fill-rule:nonzero;stroke:none"
         id="path749" />
      <path
         d="m 25.164,10.902 c -2.715,0 -4.91,2.106 -4.91,4.657 0,2.593 2.234,4.64 4.91,4.64 h 3.918 c 0.125,0 0.285,0.016 0.496,-0.062 0.11,-0.035 0.234,-0.114 0.324,-0.239 0.094,-0.121 0.129,-0.281 0.129,-0.421 0,-0.137 -0.035,-0.293 -0.125,-0.422 -0.09,-0.125 -0.218,-0.2 -0.324,-0.239 -0.215,-0.078 -0.375,-0.062 -0.5,-0.062 h -3.879 c -2.082,0 -3.48,-1.52 -3.48,-3.195 0,-1.731 1.433,-3.188 3.48,-3.188 h 3.879 c 0.125,0 0.285,0.016 0.5,-0.062 0.106,-0.039 0.234,-0.114 0.324,-0.243 0.09,-0.125 0.125,-0.281 0.125,-0.421 0,-0.278 -0.222,-0.59 -0.441,-0.676 -0.219,-0.086 -0.387,-0.067 -0.508,-0.067 z m -3.648,10.664 c -0.125,0 -0.293,-0.015 -0.512,0.067 -0.109,0.043 -0.238,0.129 -0.324,0.254 -0.086,0.129 -0.121,0.285 -0.121,0.422 0,0.14 0.039,0.296 0.129,0.421 0.089,0.129 0.218,0.204 0.324,0.243 0.215,0.078 0.379,0.062 0.504,0.062 h 7.566 c 0.125,0 0.285,0.016 0.5,-0.062 0.106,-0.039 0.234,-0.114 0.324,-0.243 0.09,-0.125 0.125,-0.281 0.125,-0.421 0,-0.278 -0.222,-0.59 -0.441,-0.676 -0.219,-0.086 -0.387,-0.067 -0.508,-0.067 z"
         style="fill:#00adef;fill-opacity:1;fill-rule:nonzero;stroke:none"
         id="path751" />
      <path
         d="m 37.699,6.898 c -0.14,-0.421 -0.222,-0.503 -0.531,-0.503 -0.309,0 -0.363,0.082 -0.504,0.503 l -6.551,18.5 c -0.586,1.653 -1.82,1.989 -2.91,1.989 v 0.812 c 0.559,-0.054 1.793,-0.054 2.379,-0.054 0.785,0 2.016,0 2.742,0.054 v -0.812 c -1.453,-0.055 -1.652,-1.035 -1.652,-1.399 0,-0.281 0.058,-0.449 0.113,-0.617 l 1.653,-4.617 H 40.5 l 1.848,5.262 c 0.168,0.363 0.168,0.418 0.168,0.558 0,0.813 -1.317,0.813 -1.907,0.813 v 0.812 c 0.899,-0.054 2.493,-0.054 3.446,-0.054 0.812,0 2.351,0 3.078,0.054 v -0.812 c -1.625,0 -2.184,0 -2.574,-1.121 z m -1.23,2.461 3.75,10.61 h -7.5 z"
         style="fill:#000000;fill-opacity:1;fill-rule:nonzero;stroke:none"
         id="path753" />
      <path
         d="m 48.809,9.332 c 0,-1.398 0.363,-1.398 2.601,-1.398 V 7.121 c -1.008,0.082 -2.574,0.082 -3.609,0.082 -1.063,0 -2.633,0 -3.61,-0.082 v 0.813 c 2.211,0 2.575,0 2.575,1.398 v 16.684 c 0,1.371 -0.364,1.371 -2.575,1.371 v 0.812 c 0.977,-0.054 2.547,-0.054 3.61,-0.054 1.035,0 2.601,0 3.609,0.054 v -0.812 c -2.238,0 -2.601,0 -2.601,-1.371 z"
         style="fill:#000000;fill-opacity:1;fill-rule:nonzero;stroke:none"
         id="path755" />
      <path
         d="M 61.328,11.484 64,8.75 h -0.922 l -3.625,3.703 V 8.75 h -0.844 v 6.922 h 0.844 v -2.266 l 1.328,-1.359 2.453,3.625 h 0.907 z"
         style="fill:#000000;fill-opacity:1;fill-rule:nonzero;stroke:none"
         id="path757" />
      <path
         d="m 68.918,12.703 c 0,-0.656 -0.156,-1.562 -1.375,-1.562 -0.891,0 -1.391,0.671 -1.438,0.75 v -0.703 h -0.718 v 4.484 h 0.765 v -2.438 c 0,-0.656 0.25,-1.484 1.016,-1.484 0.953,0 0.969,0.703 0.969,1.016 v 2.906 h 0.781 z"
         style="fill:#000000;fill-opacity:1;fill-rule:nonzero;stroke:none"
         id="path759" />
      <path
         d="m 74.395,13.484 c 0,-1.343 -1,-2.406 -2.172,-2.406 -1.235,0 -2.203,1.094 -2.203,2.406 0,1.313 1.015,2.297 2.187,2.297 1.188,0 2.188,-1 2.188,-2.297 z m -2.188,1.657 c -0.687,0 -1.406,-0.563 -1.406,-1.766 0,-1.203 0.75,-1.687 1.406,-1.687 0.703,0 1.406,0.515 1.406,1.687 0,1.187 -0.672,1.766 -1.406,1.766 z"
         style="fill:#000000;fill-opacity:1;fill-rule:nonzero;stroke:none"
         id="path761" />
      <path
         d="m 81.082,11.25 h -0.719 l -0.64,2.109 c -0.11,0.36 -0.407,1.344 -0.469,1.782 -0.047,-0.313 -0.297,-1.203 -0.469,-1.766 l -0.64,-2.125 h -0.704 l -0.562,1.875 c -0.109,0.344 -0.453,1.484 -0.484,2 H 76.379 C 76.332,14.641 76.004,13.516 75.848,12.969 L 75.316,11.25 h -0.75 l 1.36,4.422 h 0.797 c 0.047,-0.156 0.39,-1.281 0.609,-2.047 0.141,-0.469 0.422,-1.453 0.453,-1.828 h 0.016 c 0.015,0.281 0.187,0.969 0.312,1.406 l 0.735,2.469 h 0.875 z"
         style="fill:#000000;fill-opacity:1;fill-rule:nonzero;stroke:none"
         id="path763" />
      <path
         d="m 82.047,8.75 h 0.75 v 6.922 h -0.75 z"
         style="fill:#000000;fill-opacity:1;fill-rule:nonzero;stroke:none"
         id="path765" />
      <path
         d="m 87.738,13.484 c 0,-0.328 -0.015,-1.078 -0.39,-1.687 -0.422,-0.609 -1.016,-0.719 -1.375,-0.719 -1.11,0 -2.016,1.063 -2.016,2.344 0,1.312 0.969,2.359 2.156,2.359 0.625,0 1.203,-0.234 1.594,-0.515 l -0.062,-0.657 c -0.625,0.532 -1.297,0.563 -1.516,0.563 -0.797,0 -1.438,-0.703 -1.469,-1.688 z m -3.031,-0.546 c 0.156,-0.75 0.688,-1.25 1.266,-1.25 0.515,0 1.062,0.328 1.203,1.25 z"
         style="fill:#000000;fill-opacity:1;fill-rule:nonzero;stroke:none"
         id="path767" />
      <path
         d="m 92.367,8.75 h -0.75 v 2.938 c -0.531,-0.438 -1.078,-0.547 -1.453,-0.547 -0.984,0 -1.766,1.031 -1.766,2.312 0,1.313 0.766,2.328 1.719,2.328 0.328,0 0.906,-0.093 1.469,-0.625 v 0.516 h 0.781 z m -0.781,5.531 c 0,0.141 -0.016,0.328 -0.328,0.61 -0.235,0.203 -0.485,0.281 -0.735,0.281 -0.625,0 -1.343,-0.469 -1.343,-1.703 0,-1.313 0.859,-1.719 1.437,-1.719 0.453,0 0.75,0.219 0.969,0.547 z"
         style="fill:#000000;fill-opacity:1;fill-rule:nonzero;stroke:none"
         id="path769" />
      <path
         d="m 96.703,11.781 c 0.219,0 0.485,-0.047 0.735,-0.047 0.171,0 0.562,0.032 0.578,0.032 l -0.11,-0.625 c -0.687,0 -1.265,0.187 -1.562,0.312 -0.219,-0.172 -0.547,-0.312 -0.953,-0.312 -0.86,0 -1.579,0.718 -1.579,1.625 0,0.359 0.126,0.718 0.329,0.984 -0.297,0.406 -0.297,0.797 -0.297,0.844 0,0.265 0.094,0.547 0.265,0.765 -0.515,0.297 -0.64,0.766 -0.64,1.016 0,0.75 0.984,1.344 2.203,1.344 1.219,0 2.203,-0.578 2.203,-1.344 0,-1.391 -1.656,-1.391 -2.047,-1.391 h -0.875 c -0.125,0 -0.578,0 -0.578,-0.531 0,-0.109 0.031,-0.265 0.109,-0.359 0.204,0.156 0.532,0.297 0.907,0.297 0.89,0 1.593,-0.75 1.593,-1.625 0,-0.485 -0.218,-0.86 -0.328,-1 z m -1.312,2.031 c -0.375,0 -0.891,-0.218 -0.891,-1.046 0,-0.828 0.516,-1.063 0.891,-1.063 0.421,0 0.89,0.281 0.89,1.063 0,0.765 -0.469,1.046 -0.89,1.046 z m 0.453,1.891 c 0.218,0 1.344,0 1.344,0.688 0,0.437 -0.688,0.765 -1.5,0.765 -0.813,0 -1.516,-0.312 -1.516,-0.781 0,-0.031 0,-0.672 0.766,-0.672 z"
         style="fill:#000000;fill-opacity:1;fill-rule:nonzero;stroke:none"
         id="path771" />
      <path
         d="m 102.293,13.484 c 0,-0.328 -0.016,-1.078 -0.391,-1.687 -0.422,-0.609 -1.015,-0.719 -1.375,-0.719 -1.109,0 -2.015,1.063 -2.015,2.344 0,1.312 0.968,2.359 2.156,2.359 0.625,0 1.203,-0.234 1.594,-0.515 l -0.063,-0.657 c -0.625,0.532 -1.297,0.563 -1.515,0.563 -0.797,0 -1.438,-0.703 -1.469,-1.688 z m -3.031,-0.546 c 0.156,-0.75 0.687,-1.25 1.265,-1.25 0.516,0 1.063,0.328 1.203,1.25 z"
         style="fill:#000000;fill-opacity:1;fill-rule:nonzero;stroke:none"
         id="path773" />
      <path
         d="m 106.992,8.891 h -0.89 v 0.89 h 0.89 z m -0.062,2.359 h -0.75 v 4.422 h 0.75 z"
         style="fill:#000000;fill-opacity:1;fill-rule:nonzero;stroke:none"
         id="path775" />
      <path
         d="m 112.09,12.703 c 0,-0.656 -0.156,-1.562 -1.375,-1.562 -0.891,0 -1.391,0.671 -1.438,0.75 v -0.703 h -0.718 v 4.484 h 0.765 v -2.438 c 0,-0.656 0.25,-1.484 1.016,-1.484 0.953,0 0.969,0.703 0.969,1.016 v 2.906 h 0.781 z"
         style="fill:#000000;fill-opacity:1;fill-rule:nonzero;stroke:none"
         id="path777" />
      <path
         d="m 61.422,18.859 h -0.891 l -2.593,6.922 h 0.734 l 0.766,-2.031 h 2.906 l 0.75,2.031 h 0.922 z m 0.703,4.329 h -2.469 l 0.641,-1.797 c 0.203,-0.594 0.515,-1.438 0.594,-1.813 0.031,0.141 0.093,0.391 0.328,1.047 z"
         style="fill:#000000;fill-opacity:1;fill-rule:nonzero;stroke:none"
         id="path779" />
      <path
         d="m 65.863,23.641 c 0,-0.985 0.719,-1.703 1.703,-1.735 V 21.25 c -0.89,0 -1.437,0.5 -1.75,0.953 v -0.906 h -0.703 v 4.484 h 0.75 z"
         style="fill:#000000;fill-opacity:1;fill-rule:nonzero;stroke:none"
         id="path781" />
      <path
         d="m 69.453,21.938 h 1.406 v -0.579 h -1.406 v -1.265 h -0.687 v 1.265 h -0.875 v 0.579 h 0.843 v 2.656 c 0,0.594 0.141,1.297 0.828,1.297 0.688,0 1.204,-0.25 1.454,-0.375 l -0.157,-0.594 c -0.265,0.219 -0.578,0.328 -0.906,0.328 -0.359,0 -0.5,-0.297 -0.5,-0.828 z"
         style="fill:#000000;fill-opacity:1;fill-rule:nonzero;stroke:none"
         id="path783" />
      <path
         d="m 72.926,19 h -0.891 v 0.891 h 0.891 z m -0.063,2.359 h -0.75 v 4.422 h 0.75 z"
         style="fill:#000000;fill-opacity:1;fill-rule:nonzero;stroke:none"
         id="path785" />
      <path
         d="m 78.242,18.859 h -0.828 v 0.829 h 0.828 z m -0.047,2.5 h -0.75 v 4.422 h 0.75 z m -2.765,0.579 h 1.187 v -0.579 h -1.219 v -1.203 c 0,-0.64 0.36,-0.797 0.61,-0.797 0.219,0 0.437,0.079 0.609,0.188 v -0.688 c -0.062,-0.015 -0.312,-0.109 -0.609,-0.109 -0.735,0 -1.328,0.703 -1.328,1.703 v 0.906 h -0.735 v 0.579 h 0.735 v 3.843 h 0.75 z"
         style="fill:#000000;fill-opacity:1;fill-rule:nonzero;stroke:none"
         id="path787" />
      <path
         d="m 83.117,21.609 c -0.594,-0.328 -0.937,-0.421 -1.547,-0.421 -1.375,0 -2.187,1.203 -2.187,2.374 0,1.235 0.906,2.329 2.156,2.329 0.531,0 1.078,-0.141 1.625,-0.516 l -0.062,-0.656 c -0.516,0.39 -1.047,0.531 -1.563,0.531 -0.828,0 -1.375,-0.719 -1.375,-1.688 0,-0.781 0.359,-1.734 1.422,-1.734 0.516,0 0.859,0.078 1.406,0.438 z"
         style="fill:#000000;fill-opacity:1;fill-rule:nonzero;stroke:none"
         id="path789" />
      <path
         d="m 85.074,19 h -0.89 v 0.891 h 0.89 z m -0.062,2.359 h -0.75 v 4.422 h 0.75 z"
         style="fill:#000000;fill-opacity:1;fill-rule:nonzero;stroke:none"
         id="path791" />
      <path
         d="m 89.812,22.906 c 0,-1.015 -0.734,-1.718 -1.656,-1.718 -0.64,0 -1.094,0.156 -1.562,0.421 l 0.062,0.657 c 0.516,-0.36 1.016,-0.485 1.5,-0.485 0.469,0 0.875,0.391 0.875,1.125 v 0.438 c -1.5,0.015 -2.765,0.437 -2.765,1.312 0,0.422 0.265,1.235 1.14,1.235 0.141,0 1.078,-0.016 1.656,-0.469 v 0.359 h 0.75 z m -0.781,1.563 c 0,0.187 0,0.437 -0.343,0.625 -0.282,0.172 -0.672,0.187 -0.782,0.187 -0.468,0 -0.922,-0.234 -0.922,-0.64 0,-0.703 1.61,-0.766 2.047,-0.797 z"
         style="fill:#000000;fill-opacity:1;fill-rule:nonzero;stroke:none"
         id="path793" />
      <path
         d="m 91.43,18.859 h 0.75 v 6.922 h -0.75 z"
         style="fill:#000000;fill-opacity:1;fill-rule:nonzero;stroke:none"
         id="path795" />
      <path
         d="m 96.703,18.859 h 0.891 v 6.922 h -0.891 z"
         style="fill:#000000;fill-opacity:1;fill-rule:nonzero;stroke:none"
         id="path797" />
      <path
         d="m 102.879,22.812 c 0,-0.656 -0.156,-1.562 -1.375,-1.562 -0.891,0 -1.391,0.672 -1.438,0.75 v -0.703 h -0.718 v 4.484 h 0.765 v -2.437 c 0,-0.656 0.25,-1.485 1.016,-1.485 0.953,0 0.969,0.703 0.969,1.016 v 2.906 h 0.781 z"
         style="fill:#000000;fill-opacity:1;fill-rule:nonzero;stroke:none"
         id="path799" />
      <path
         d="m 105.434,21.938 h 1.406 v -0.579 h -1.406 v -1.265 h -0.688 v 1.265 h -0.875 v 0.579 h 0.844 v 2.656 c 0,0.594 0.14,1.297 0.828,1.297 0.687,0 1.203,-0.25 1.453,-0.375 l -0.156,-0.594 c -0.266,0.219 -0.578,0.328 -0.906,0.328 -0.36,0 -0.5,-0.297 -0.5,-0.828 z"
         style="fill:#000000;fill-opacity:1;fill-rule:nonzero;stroke:none"
         id="path801" />
      <path
         d="m 111.406,23.594 c 0,-0.328 -0.015,-1.078 -0.39,-1.688 -0.422,-0.609 -1.016,-0.718 -1.375,-0.718 -1.11,0 -2.016,1.062 -2.016,2.343 0,1.313 0.969,2.36 2.156,2.36 0.625,0 1.203,-0.235 1.594,-0.516 l -0.063,-0.656 c -0.624,0.531 -1.296,0.562 -1.515,0.562 -0.797,0 -1.438,-0.703 -1.469,-1.687 z m -3.031,-0.547 c 0.156,-0.75 0.687,-1.25 1.266,-1.25 0.515,0 1.062,0.328 1.203,1.25 z"
         style="fill:#000000;fill-opacity:1;fill-rule:nonzero;stroke:none"
         id="path803" />
      <path
         d="m 112.52,18.859 h 0.75 v 6.922 h -0.75 z"
         style="fill:#000000;fill-opacity:1;fill-rule:nonzero;stroke:none"
         id="path805" />
      <path
         d="m 114.898,18.859 h 0.75 v 6.922 h -0.75 z"
         style="fill:#000000;fill-opacity:1;fill-rule:nonzero;stroke:none"
         id="path807" />
      <path
         d="m 118.094,19 h -0.891 v 0.891 h 0.891 z m -0.063,2.359 h -0.75 v 4.422 h 0.75 z"
         style="fill:#000000;fill-opacity:1;fill-rule:nonzero;stroke:none"
         id="path809" />
      <path
         d="m 122.363,21.891 c 0.219,0 0.485,-0.047 0.735,-0.047 0.172,0 0.562,0.031 0.578,0.031 l -0.11,-0.625 c -0.687,0 -1.265,0.188 -1.562,0.312 -0.219,-0.171 -0.547,-0.312 -0.953,-0.312 -0.86,0 -1.578,0.719 -1.578,1.625 0,0.359 0.125,0.719 0.328,0.984 -0.297,0.407 -0.297,0.797 -0.297,0.844 0,0.266 0.094,0.547 0.266,0.766 -0.516,0.297 -0.641,0.765 -0.641,1.015 0,0.75 0.984,1.344 2.203,1.344 1.219,0 2.203,-0.578 2.203,-1.344 0,-1.39 -1.656,-1.39 -2.047,-1.39 h -0.875 c -0.125,0 -0.578,0 -0.578,-0.532 0,-0.109 0.031,-0.265 0.11,-0.359 0.203,0.156 0.531,0.297 0.906,0.297 0.89,0 1.594,-0.75 1.594,-1.625 0,-0.484 -0.219,-0.859 -0.329,-1 z m -1.312,2.031 c -0.375,0 -0.891,-0.219 -0.891,-1.047 0,-0.828 0.516,-1.063 0.891,-1.063 0.422,0 0.89,0.282 0.89,1.063 0,0.766 -0.468,1.047 -0.89,1.047 z m 0.453,1.89 c 0.219,0 1.344,0 1.344,0.688 0,0.438 -0.688,0.766 -1.5,0.766 -0.813,0 -1.516,-0.313 -1.516,-0.782 0,-0.031 0,-0.672 0.766,-0.672 z"
         style="fill:#000000;fill-opacity:1;fill-rule:nonzero;stroke:none"
         id="path811" />
      <path
         d="m 127.953,23.594 c 0,-0.328 -0.015,-1.078 -0.391,-1.688 -0.421,-0.609 -1.015,-0.718 -1.374,-0.718 -1.11,0 -2.016,1.062 -2.016,2.343 0,1.313 0.969,2.36 2.156,2.36 0.625,0 1.203,-0.235 1.594,-0.516 l -0.063,-0.656 c -0.625,0.531 -1.297,0.562 -1.515,0.562 -0.797,0 -1.438,-0.703 -1.469,-1.687 z m -3.031,-0.547 c 0.156,-0.75 0.687,-1.25 1.266,-1.25 0.515,0 1.062,0.328 1.203,1.25 z"
         style="fill:#000000;fill-opacity:1;fill-rule:nonzero;stroke:none"
         id="path813" />
      <path
         d="m 132.602,22.812 c 0,-0.656 -0.157,-1.562 -1.375,-1.562 -0.891,0 -1.391,0.672 -1.438,0.75 v -0.703 h -0.719 v 4.484 h 0.766 v -2.437 c 0,-0.656 0.25,-1.485 1.016,-1.485 0.953,0 0.968,0.703 0.968,1.016 v 2.906 h 0.782 z"
         style="fill:#000000;fill-opacity:1;fill-rule:nonzero;stroke:none"
         id="path815" />
      <path
         d="m 137.496,21.609 c -0.594,-0.328 -0.937,-0.421 -1.547,-0.421 -1.375,0 -2.187,1.203 -2.187,2.374 0,1.235 0.906,2.329 2.156,2.329 0.531,0 1.078,-0.141 1.625,-0.516 l -0.063,-0.656 c -0.515,0.39 -1.046,0.531 -1.562,0.531 -0.828,0 -1.375,-0.719 -1.375,-1.688 0,-0.781 0.359,-1.734 1.422,-1.734 0.515,0 0.859,0.078 1.406,0.438 z"
         style="fill:#000000;fill-opacity:1;fill-rule:nonzero;stroke:none"
         id="path817" />
      <path
         d="m 141.957,23.594 c 0,-0.328 -0.016,-1.078 -0.391,-1.688 -0.421,-0.609 -1.015,-0.718 -1.375,-0.718 -1.109,0 -2.015,1.062 -2.015,2.343 0,1.313 0.969,2.36 2.156,2.36 0.625,0 1.203,-0.235 1.594,-0.516 l -0.063,-0.656 c -0.625,0.531 -1.297,0.562 -1.515,0.562 -0.797,0 -1.438,-0.703 -1.469,-1.687 z m -3.031,-0.547 c 0.156,-0.75 0.687,-1.25 1.265,-1.25 0.516,0 1.063,0.328 1.204,1.25 z"
         style="fill:#000000;fill-opacity:1;fill-rule:nonzero;stroke:none"
         id="path819" />
    </g>
  </g>
</svg>
